<svg xmlns="http://www.w3.org/2000/svg" version="1.1" xmlns:xlink="http://www.w3.org/1999/xlink" xmlns:svgjs="http://svgjs.dev/svgjs" viewBox="0 0 1920 1080" class="overflow-hidden rounded-md drop-shadow-lg transition duration-300" style="overflow: hidden; height: 85vh;"><rect width="1920" height="1080" fill="#691542"></rect><g clip-path="url(&quot;#SvgjsClipPath1265&quot;)"><g transform="matrix(0.9857423958074291,0.5922937861465623,-0.5922937861465623,0.9857423958074291,333.1718132830222,-546.1914984845691)"><path d="M0,-1080C-4.3053475839518995,-1000.1322943363577,-17.601719343243225,-778.6220041740557,-25.832085503711397,-600.7937660181467C-34.06245166417957,-422.96552786223765,-47.25174918034742,-212.1014404745926,-49.38219696280902,-13.030571064545853C-51.51264474527062,186.0402983455009,-41.45947221553429,410.3009327196031,-38.614772198481006,593.6314504421339C-35.77007218142772,776.9619681646647,-46.43832838395809,905.4370452118162,-32.31399686048931,1086.9525352706387C-18.189665337020536,1268.4680253294612,40.745550798916746,1503.8831466735082,46.13121694233163,1682.7243907950685C51.51688308574652,1861.5656349166288,7.688536157055272,2080.4540651325115,0,2160L 1920 2160 L 1920 -1080 Z" fill="url(&quot;#SvgjsLinearGradient1263&quot;)"></path><path d="M960,-1080C960.4695918511165,-989.0112166287822,959.27791477265,-708.1265193820848,962.8175511066992,-534.0672997726933C966.3571874407484,-360.0080801633019,972.1590054762523,-204.4153335059624,981.237818004295,-35.64468234365154C990.3166305323377,133.12596881865932,1030.7396992042018,298.65497133972985,1017.290426274955,478.5566072011718C1003.8411533457083,658.4582430626137,909.5050218478502,853.1474026367454,900.5421804288148,1043.7651328250004C891.5793390097795,1234.3828630132552,953.6037411655449,1436.2238438015352,963.5133777607424,1622.2629883307018C973.4230143559399,1808.3021328598684,960.5855629601238,2070.3771647217836,960,2160L 1920 2160 L 1920 -1080 Z" fill="url(&quot;#SvgjsLinearGradient1264&quot;)"></path></g></g><defs><linearGradient x1="0.1" y1="0" x2="0" y2="1" id="SvgjsLinearGradient1263"><stop stop-color="#691542" offset="0"></stop><stop stop-color="#691550" offset="0"></stop></linearGradient><linearGradient x1="0.1" y1="0" x2="0" y2="1" id="SvgjsLinearGradient1264"><stop stop-color="#e169a9" offset="0"></stop><stop stop-color="#e169bd" offset="0.5"></stop></linearGradient><clipPath id="SvgjsClipPath1265"><rect width="1920" height="1080"></rect></clipPath></defs></svg>