<svg xmlns="http://www.w3.org/2000/svg" version="1.1" xmlns:xlink="http://www.w3.org/1999/xlink" xmlns:svgjs="http://svgjs.com/svgjs" width="1920" height="1080" preserveAspectRatio="none" viewBox="0 0 1920 1080">
    <g mask="url(&quot;#SvgjsMask1049&quot;)" fill="none">
        <rect width="1920" height="1080" x="0" y="0" fill="rgba(22, 139, 177, 1)"></rect>
        <path d="M0,928.124C169.088,954.8,328.458,815.919,442.075,687.882C542.387,574.839,539.461,411.417,586.083,267.655C626.439,143.213,698.833,30.505,697.684,-100.312C696.432,-242.775,651.309,-379.041,579.321,-501.984C495.952,-644.364,408.774,-807.077,252.632,-860.386C95.493,-914.036,-71.491,-832.161,-228.365,-777.74C-378.404,-725.69,-547.008,-682.787,-636.835,-551.821C-724.519,-423.979,-665.07,-252.107,-693.421,-99.699C-723.449,61.723,-881.97,222.41,-808.139,369.065C-733.638,517.051,-496.94,466.977,-360.685,561.236C-216.732,660.821,-172.904,900.846,0,928.124" fill="#10647f"></path>
        <path d="M1920 1787.426C2053.296 1798.037 2177.9030000000002 1728.634 2290.687 1656.8 2403.83 1584.737 2528.429 1503.934 2566.877 1375.4189999999999 2604.446 1249.841 2517.728 1125.965 2487.667 998.3820000000001 2460.728 884.049 2464.931 762.0840000000001 2399.3940000000002 664.602 2329.218 560.219 2223.223 488.68600000000004 2109.243 435.496 1980.403 375.371 1840.241 303.99800000000005 1702.542 339.408 1563.965 375.044 1476.191 506.51 1389.734 620.5219999999999 1307.979 728.335 1244.653 846.441 1217.534 979.001 1189.187 1117.563 1159.375 1272.755 1231.4009999999998 1394.473 1302.3809999999999 1514.422 1464.342 1531.575 1585.395 1600.655 1698.63 1665.2730000000001 1790.036 1777.08 1920 1787.426" fill="#1cb2e3"></path>
    </g>
    <defs>
        <mask id="SvgjsMask1049">
            <rect width="1920" height="1080" fill="#ffffff"></rect>
        </mask>
    </defs>
</svg>